REM MD5 418765f9b72e51f5d03b1171e3d33722
FILE "Italian Job, The (Europe) (Fr,De,Es).bin" BINARY
  TRACK 01 MODE2/2352
    INDEX 01 00:00:00
  TRACK 02 AUDIO
    INDEX 00 65:57:06
    INDEX 01 65:59:06
  TRACK 03 AUDIO
    INDEX 00 66:47:08
    INDEX 01 66:49:08
REM LEADOUT 69:50:40
